<?xml version="1.0" encoding="UTF-8"?>
<svg width="27px" height="24px" viewBox="0 0 27 24" version="1.1" xmlns="http://www.w3.org/2000/svg" xmlns:xlink="http://www.w3.org/1999/xlink">
    <!-- Generator: Sketch 64 (93537) - https://sketch.com -->
    <title>analytics</title>
    <desc>Created with Sketch.</desc>
    <g id="Page-1" stroke="none" stroke-width="1" fill="none" fill-rule="evenodd">
        <g id="MeChange_Mobile_Home" transform="translate(-113.000000, -819.000000)" fill="#000000" fill-rule="nonzero">
            <g id="Bottom-Bar" transform="translate(0.000000, 806.000000)">
                <g id="analytics" transform="translate(113.000000, 13.000000)">
                    <path d="M3.75,16.5 L0.75,16.5 C0.335625,16.5 0,16.835625 0,17.25 L0,23.25 C0,23.664375 0.335625,24 0.75,24 L3.75,24 C4.164375,24 4.5,23.664375 4.5,23.25 L4.5,17.25 C4.5,16.835625 4.164375,16.5 3.75,16.5 Z M3,22.5 L1.5,22.5 L1.5,18 L3,18 L3,22.5 Z M26.25,9 L23.25,9 C22.835625,9 22.5,9.335625 22.5,9.75 L22.5,23.25 C22.5,23.664375 22.835625,24 23.25,24 L26.25,24 C26.664375,24 27,23.664375 27,23.25 L27,9.75 C27,9.335625 26.664375,9 26.25,9 Z M25.5,22.5 L24,22.5 L24,10.5 L25.5,10.5 L25.5,22.5 Z M23.5673438,4.156875 C23.911875,4.370625 24.3145313,4.5 24.75,4.5 C25.9926563,4.5 27,3.49265625 27,2.25 C27,1.00734375 25.9926563,0 24.75,0 C23.5073438,0 22.5,1.00734375 22.5,2.25 C22.5,2.50828125 22.5525,2.75203125 22.6326563,2.983125 L18.4326563,6.343125 C18.088125,6.12890625 17.6854688,5.99953125 17.25,5.99953125 C16.8145313,5.99953125 16.411875,6.12890625 16.0673438,6.343125 L11.8673438,2.983125 C11.9475,2.7525 12,2.50828125 12,2.25 C12,1.00734375 10.9926563,0 9.75,0 C8.50734375,0 7.5,1.00734375 7.5,2.25 C7.5,2.596875 7.58484375,2.92125 7.725,3.2146875 L3.2146875,7.725 C2.92125,7.58484375 2.596875,7.5 2.25,7.5 C1.00734375,7.5 0,8.50734375 0,9.75 C0,10.9926562 1.00734375,12 2.25,12 C3.49265625,12 4.5,10.9926562 4.5,9.75 C4.5,9.403125 4.41515625,9.07875 4.275,8.7853125 L8.7853125,4.275 C9.07875,4.41515625 9.403125,4.5 9.75,4.5 C10.1854688,4.5 10.588125,4.370625 10.9326563,4.15640625 L15.1326563,7.51640625 C15.0525,7.7475 15,7.99171875 15,8.25 C15,9.49265625 16.0073438,10.5 17.25,10.5 C18.4926563,10.5 19.5,9.49265625 19.5,8.25 C19.5,7.99171875 19.4475,7.7475 19.3673438,7.51640625 L23.5673438,4.156875 Z M24.75,1.5 C25.1634375,1.5 25.5,1.8365625 25.5,2.25 C25.5,2.6634375 25.1634375,3 24.75,3 C24.3365625,3 24,2.6634375 24,2.25 C24,1.8365625 24.3365625,1.5 24.75,1.5 Z M2.25,10.5 C1.8365625,10.5 1.5,10.1634375 1.5,9.75 C1.5,9.3365625 1.8365625,9 2.25,9 C2.6634375,9 3,9.3365625 3,9.75 C3,10.1634375 2.6634375,10.5 2.25,10.5 Z M9.75,3 C9.3365625,3 9,2.6634375 9,2.25 C9,1.8365625 9.3365625,1.5 9.75,1.5 C10.1634375,1.5 10.5,1.8365625 10.5,2.25 C10.5,2.6634375 10.1634375,3 9.75,3 Z M17.25,9 C16.8365625,9 16.5,8.6634375 16.5,8.25 C16.5,7.8365625 16.8365625,7.5 17.25,7.5 C17.6634375,7.5 18,7.8365625 18,8.25 C18,8.6634375 17.6634375,9 17.25,9 Z M11.25,9 L8.25,9 C7.835625,9 7.5,9.335625 7.5,9.75 L7.5,23.25 C7.5,23.664375 7.835625,24 8.25,24 L11.25,24 C11.664375,24 12,23.664375 12,23.25 L12,9.75 C12,9.335625 11.664375,9 11.25,9 Z M10.5,22.5 L9,22.5 L9,10.5 L10.5,10.5 L10.5,22.5 Z M18.75,15 L15.75,15 C15.335625,15 15,15.335625 15,15.75 L15,23.25 C15,23.664375 15.335625,24 15.75,24 L18.75,24 C19.164375,24 19.5,23.664375 19.5,23.25 L19.5,15.75 C19.5,15.335625 19.164375,15 18.75,15 Z M18,22.5 L16.5,22.5 L16.5,16.5 L18,16.5 L18,22.5 Z" id="Shape"></path>
                </g>
            </g>
        </g>
    </g>
</svg>