<?xml version="1.0" encoding="UTF-8"?>
<svg width="27px" height="24px" viewBox="0 0 27 24" version="1.1" xmlns="http://www.w3.org/2000/svg" xmlns:xlink="http://www.w3.org/1999/xlink">
    <!-- Generator: Sketch 64 (93537) - https://sketch.com -->
    <title>analytics</title>
    <desc>Created with Sketch.</desc>
    <g id="Page-1" stroke="none" stroke-width="1" fill="none" fill-rule="evenodd">
        <g id="MeChange_Mobile_Trends" transform="translate(-113.000000, -819.000000)" fill="#05696B" fill-rule="nonzero">
            <g id="Bottom-Bar" transform="translate(0.000000, 806.000000)">
                <g id="analytics" transform="translate(113.000000, 13.000000)">
                    <path d="M23.9353125,4.34203125 C24.1889062,4.4409375 24.4617187,4.5 24.75,4.5 C25.9926562,4.5 27,3.49265625 27,2.25 C27,1.00734375 25.9926562,0 24.75,0 C23.5073438,0 22.5,1.00734375 22.5,2.25 C22.5,2.36390625 22.5173437,2.473125 22.5332812,2.58234375 L18.0642188,6.1575 C17.8110938,6.05859375 17.5378125,5.99953125 17.2495313,5.99953125 C16.96125,5.99953125 16.6884375,6.05859375 16.4348438,6.1575 L11.9667188,2.5828125 C11.983125,2.47359375 12,2.36390625 12,2.25 C12,1.00734375 10.9926562,0 9.75,0 C8.50734375,0 7.5,1.00734375 7.5,2.25 C7.5,2.45015625 7.5346875,2.6409375 7.5834375,2.825625 L2.825625,7.5834375 C2.6409375,7.5346875 2.45015625,7.5 2.25,7.5 C1.00734375,7.5 0,8.50734375 0,9.75 C0,10.9926562 1.00734375,12 2.25,12 C3.49265625,12 4.5,10.9926562 4.5,9.75 C4.5,9.54984375 4.4653125,9.3590625 4.4165625,9.174375 L9.174375,4.4165625 C9.3590625,4.4653125 9.54984375,4.5 9.75,4.5 C10.0382813,4.5 10.3110938,4.4409375 10.5646875,4.34203125 L15.03375,7.9171875 C15.0173437,8.02640625 15.0004688,8.13609375 15.0004688,8.25 C15.0004688,9.49265625 16.0078125,10.5 17.2504688,10.5 C18.493125,10.5 19.5004687,9.49265625 19.5004687,8.25 C19.5004687,8.13609375 19.483125,8.026875 19.4671875,7.91765625 L23.9353125,4.34203125 Z M18.75,15 L15.75,15 C15.335625,15 15,15.335625 15,15.75 L15,23.25 C15,23.664375 15.335625,24 15.75,24 L18.75,24 C19.164375,24 19.5,23.664375 19.5,23.25 L19.5,15.75 C19.5,15.335625 19.164375,15 18.75,15 Z M26.25,9 L23.25,9 C22.835625,9 22.5,9.335625 22.5,9.75 L22.5,23.25 C22.5,23.664375 22.835625,24 23.25,24 L26.25,24 C26.664375,24 27,23.664375 27,23.25 L27,9.75 C27,9.335625 26.664375,9 26.25,9 Z M11.25,9 L8.25,9 C7.835625,9 7.5,9.335625 7.5,9.75 L7.5,23.25 C7.5,23.664375 7.835625,24 8.25,24 L11.25,24 C11.664375,24 12,23.664375 12,23.25 L12,9.75 C12,9.335625 11.664375,9 11.25,9 Z M3.75,16.5 L0.75,16.5 C0.335625,16.5 0,16.835625 0,17.25 L0,23.25 C0,23.664375 0.335625,24 0.75,24 L3.75,24 C4.164375,24 4.5,23.664375 4.5,23.25 L4.5,17.25 C4.5,16.835625 4.164375,16.5 3.75,16.5 Z" id="Shape"></path>
                </g>
            </g>
        </g>
    </g>
</svg>