<?xml version="1.0" encoding="UTF-8"?>
<svg width="24px" height="27px" viewBox="0 0 24 27" version="1.1" xmlns="http://www.w3.org/2000/svg" xmlns:xlink="http://www.w3.org/1999/xlink">
    <!-- Generator: Sketch 64 (93537) - https://sketch.com -->
    <title>calculator</title>
    <desc>Created with Sketch.</desc>
    <g id="Page-1" stroke="none" stroke-width="1" fill="none" fill-rule="evenodd">
        <g id="MeChange_Mobile_Home_Currency" transform="translate(-370.000000, -53.000000)" fill="#FFFFFF" fill-rule="nonzero">
            <g id="calculator" transform="translate(370.000000, 53.000000)">
                <path d="M21.4285714,0 L2.57142857,0 C1.2,0 0,1.18125 0,2.53125 L0,24.46875 C0,25.81875 1.2,27 2.57142857,27 L21.4285714,27 C22.8,27 24,25.81875 24,24.46875 L24,2.53125 C24,1.18125 22.8,0 21.4285714,0 Z M6.85714286,22.95 C6.85714286,23.2875 6.51428571,23.625 6.17142857,23.625 L4.11428571,23.625 C3.77142857,23.625 3.42857143,23.2875 3.42857143,22.95 L3.42857143,20.925 C3.42857143,20.5875 3.77142857,20.25 4.11428571,20.25 L6.17142857,20.25 C6.51428571,20.25 6.85714286,20.5875 6.85714286,20.925 L6.85714286,22.95 L6.85714286,22.95 Z M6.85714286,16.2 C6.85714286,16.5375 6.51428571,16.875 6.17142857,16.875 L4.11428571,16.875 C3.77142857,16.875 3.42857143,16.5375 3.42857143,16.2 L3.42857143,14.175 C3.42857143,13.8375 3.77142857,13.5 4.11428571,13.5 L6.17142857,13.5 C6.51428571,13.5 6.85714286,13.8375 6.85714286,14.175 L6.85714286,16.2 L6.85714286,16.2 Z M13.7142857,22.95 C13.7142857,23.2875 13.3714286,23.625 13.0285714,23.625 L10.9714286,23.625 C10.6285714,23.625 10.2857143,23.2875 10.2857143,22.95 L10.2857143,20.925 C10.2857143,20.5875 10.6285714,20.25 10.9714286,20.25 L13.0285714,20.25 C13.3714286,20.25 13.7142857,20.5875 13.7142857,20.925 L13.7142857,22.95 Z M13.7142857,16.2 C13.7142857,16.5375 13.3714286,16.875 13.0285714,16.875 L10.9714286,16.875 C10.6285714,16.875 10.2857143,16.5375 10.2857143,16.2 L10.2857143,14.175 C10.2857143,13.8375 10.6285714,13.5 10.9714286,13.5 L13.0285714,13.5 C13.3714286,13.5 13.7142857,13.8375 13.7142857,14.175 L13.7142857,16.2 Z M20.5714286,22.95 C20.5714286,23.2875 20.2285714,23.625 19.8857143,23.625 L17.8285714,23.625 C17.4857143,23.625 17.1428571,23.2875 17.1428571,22.95 L17.1428571,14.175 C17.1428571,13.8375 17.4857143,13.5 17.8285714,13.5 L19.8857143,13.5 C20.2285714,13.5 20.5714286,13.8375 20.5714286,14.175 L20.5714286,22.95 L20.5714286,22.95 Z M20.5714286,9.45 C20.5714286,9.7875 20.2285714,10.125 19.8857143,10.125 L4.11428571,10.125 C3.77142857,10.125 3.42857143,9.7875 3.42857143,9.45 L3.42857143,4.05 C3.42857143,3.7125 3.77142857,3.375 4.11428571,3.375 L19.8857143,3.375 C20.2285714,3.375 20.5714286,3.7125 20.5714286,4.05 L20.5714286,9.45 Z" id="Shape"></path>
            </g>
        </g>
    </g>
</svg>