<?xml version="1.0" encoding="UTF-8"?>
<svg width="23px" height="24px" viewBox="0 0 23 24" version="1.1" xmlns="http://www.w3.org/2000/svg" xmlns:xlink="http://www.w3.org/1999/xlink">
    <!-- Generator: Sketch 64 (93537) - https://sketch.com -->
    <title>cog</title>
    <desc>Created with Sketch.</desc>
    <g id="Page-1" stroke="none" stroke-width="1" fill="none" fill-rule="evenodd">
        <g id="MeChange_Mobile_Home" transform="translate(-362.000000, -819.000000)" fill="#ffffff" fill-rule="nonzero">
            <g id="Bottom-Bar" transform="translate(0.000000, 806.000000)">
                <g id="cog" transform="translate(362.000000, 13.000000)">
                    <path d="M22.4205682,14.0940274 L20.8496551,13.1830421 C20.9484093,12.3974663 20.9484093,11.6025337 20.8496551,10.8169579 L22.4205682,9.90597264 C22.8818704,9.63848836 23.1043803,9.08813269 22.9526844,8.57527708 C22.4124752,6.7487098 21.4508991,5.10456215 20.1810656,3.75615689 C19.8133149,3.36567243 19.2264263,3.28022069 18.7630045,3.54896303 L17.1944037,4.45854505 C16.5669746,3.97891929 15.8816755,3.5809223 15.1548179,3.27402713 L15.1548179,1.45399212 C15.1548179,0.915442917 14.7862,0.447345435 14.2643929,0.323329118 C12.4509781,-0.107752179 10.5494073,-0.107800566 8.73560712,0.323329118 C8.21384813,0.447345435 7.84518213,0.91539453 7.84518213,1.45399212 L7.84518213,3.27402713 C7.11831896,3.58091114 6.43301854,3.97890892 5.80559635,4.45854505 L4.23699547,3.54896303 C3.77352551,3.28022069 3.18663698,3.36567243 2.81893443,3.75615689 C1.54910091,5.10456215 0.587524779,6.74875819 0.047315634,8.57527708 C-0.104380335,9.08813269 0.118129567,9.63843998 0.579431758,9.90597264 L2.15034492,10.8169579 C2.05159074,11.6025337 2.05159074,12.3974663 2.15034492,13.1830421 L0.579431758,14.0940274 C0.118129567,14.3615116 -0.104380335,14.9118673 0.047315634,15.4247229 C0.587524779,17.2512418 1.54910091,18.8954378 2.81893443,20.2438431 C3.18668515,20.6343276 3.77357368,20.7197793 4.23699547,20.4510854 L5.80559635,19.5415033 C6.43301513,20.0211316 7.11831662,20.4191138 7.84518213,20.7259729 L7.84518213,22.5460079 C7.84518213,23.0845571 8.21379996,23.5526546 8.73560712,23.6766709 C10.54907,24.1077522 12.4505927,24.1078006 14.2643929,23.6766709 C14.7861519,23.5526546 15.1548179,23.0846055 15.1548179,22.5460079 L15.1548179,20.7259729 C15.88167,20.4190868 16.5669683,20.0211066 17.1944037,19.5415033 L18.7630045,20.4510854 C19.2264263,20.7198277 19.8133149,20.634376 20.1810656,20.2438431 C21.4508991,18.8954378 22.4124752,17.2512418 22.9526844,15.4247229 C23.1043803,14.9118673 22.8818704,14.36156 22.4205682,14.0940274 L22.4205682,14.0940274 Z M19.2662652,18.9550508 L17.0354336,17.6611779 C15.7353476,18.7775183 15.2742863,19.0584058 13.6132901,19.6479067 L13.6132901,22.2356042 C12.2191066,22.5244762 10.7808934,22.5244762 9.38670992,22.2356042 L9.38670992,19.6479067 C7.76709411,19.0731155 7.29818063,18.8062119 5.9645664,17.6611779 L3.73373482,18.9550508 C2.78425005,17.8861783 2.06267053,16.6329989 1.61755438,15.2796582 L3.84934941,13.9857853 C3.53454053,12.2720569 3.53439601,11.7288141 3.84934941,10.0142147 L1.61755438,8.72034182 C2.06267053,7.36700106 2.78429822,6.11377336 3.73373482,5.0444169 L5.9645664,6.33925757 C7.2833916,5.20535263 7.74999279,4.93288448 9.38670992,4.35204489 L9.38670992,1.76439581 C10.7808443,1.47504083 12.2191557,1.47504083 13.6132901,1.76439581 L13.6132901,4.35209327 C15.2501036,4.93298125 15.7167529,5.20549779 17.0354336,6.33930596 L19.2662652,5.04446529 C20.2157018,6.11377336 20.9373295,7.36700106 21.3824456,8.7203902 L19.1506506,10.0142631 C19.4655076,11.728427 19.465604,12.2712343 19.1506506,13.9858336 L21.3824456,15.2797066 C20.9373295,16.6329989 20.2157499,17.8862266 19.2662652,18.9550508 Z M11.5,7.35485588 C8.94997583,7.35485588 6.87541663,9.43864935 6.87541663,12.0000242 C6.87541663,14.561399 8.94997583,16.6451925 11.5,16.6451925 C14.0500242,16.6451925 16.1245834,14.561399 16.1245834,12.0000242 C16.1245834,9.43864935 14.0500242,7.35485588 11.5,7.35485588 Z M11.5,15.0968031 C9.79998388,15.0968031 8.41694442,13.7076074 8.41694442,12.0000242 C8.41694442,10.292441 9.79998388,8.90324532 11.5,8.90324532 C13.2000161,8.90324532 14.5830556,10.292441 14.5830556,12.0000242 C14.5830556,13.7076074 13.2000161,15.0968031 11.5,15.0968031 Z" id="Shape"></path>
                </g>
            </g>
        </g>
    </g>
</svg>