<?xml version="1.0" encoding="UTF-8"?>
<svg width="23px" height="24px" viewBox="0 0 23 24" version="1.1" xmlns="http://www.w3.org/2000/svg" xmlns:xlink="http://www.w3.org/1999/xlink">
    <!-- Generator: Sketch 64 (93537) - https://sketch.com -->
    <title>cog</title>
    <desc>Created with Sketch.</desc>
    <g id="Page-1" stroke="none" stroke-width="1" fill="none" fill-rule="evenodd">
        <g id="MeChange_Mobile_Settings" transform="translate(-362.000000, -819.000000)" fill="#05696B" fill-rule="nonzero">
            <g id="Bottom-Bar" transform="translate(0.000000, 806.000000)">
                <g id="cog" transform="translate(362.000000, 13.000000)">
                    <path d="M22.7062266,14.8838601 L20.6427116,13.693542 C20.8510007,12.5709656 20.8510007,11.419357 20.6427116,10.2967806 L22.7062266,9.10646255 C22.9435792,8.97097919 23.0501457,8.69033509 22.9726428,8.42904575 C22.4349664,6.70647162 21.5194633,5.14841299 20.3230122,3.8516437 C20.1389427,3.65325735 19.838619,3.60487044 19.6061102,3.74035379 L17.5425953,4.93067188 C16.6755315,4.1855134 15.6776816,3.60970913 14.5974848,3.2322912 L14.5974848,0.856493725 C14.5974848,0.585527007 14.4085715,0.348431129 14.1421552,0.290366832 C12.3644323,-0.106405862 10.5431139,-0.0870510965 8.85258173,0.290366832 C8.58616548,0.348431129 8.39725214,0.585527007 8.39725214,0.856493725 L8.39725214,3.23712989 C7.32189929,3.61938651 6.32404934,4.19519079 5.45214163,4.93551057 L3.39347062,3.74519249 C3.15611797,3.60970913 2.86063813,3.65325735 2.67656872,3.85648239 C1.48011758,5.14841299 0.564614472,6.70647162 0.0269380459,8.43388444 C-0.0554087941,8.69517378 0.0560016365,8.97581788 0.293354293,9.11130124 L2.35686923,10.3016193 C2.14858016,11.4241957 2.14858016,12.5758043 2.35686923,13.6983807 L0.293354293,14.8886988 C0.0560016365,15.0241821 -0.0505648623,15.3048262 0.0269380459,15.5661156 C0.564614472,17.2886897 1.48011758,18.8467483 2.67656872,20.1435176 C2.86063813,20.341904 3.1609619,20.3902909 3.39347062,20.2548075 L5.45698556,19.0644894 C6.32404934,19.8096479 7.32189929,20.3854522 8.40209607,20.7628701 L8.40209607,23.1435063 C8.40209607,23.414473 8.59100941,23.6515689 8.85742566,23.7096332 C10.6351486,24.1064059 12.456467,24.0870511 14.1469991,23.7096332 C14.4134154,23.6515689 14.6023287,23.414473 14.6023287,23.1435063 L14.6023287,20.7628701 C15.6776816,20.3806135 16.6755315,19.8048092 17.5474392,19.0644894 L19.6109542,20.2548075 C19.8483068,20.3902909 20.1437867,20.3467427 20.3278561,20.1435176 C21.5243072,18.851587 22.4398103,17.2935284 22.9774868,15.5661156 C23.0501457,15.2999875 22.9435792,15.0193434 22.7062266,14.8838601 Z M11.4973685,15.8661144 C9.36119456,15.8661144 7.62222306,14.1290242 7.62222306,11.9951613 C7.62222306,9.8612984 9.36119456,8.1242082 11.4973685,8.1242082 C13.6335424,8.1242082 15.3725139,9.8612984 15.3725139,11.9951613 C15.3725139,14.1290242 13.6335424,15.8661144 11.4973685,15.8661144 Z" id="Shape"></path>
                </g>
            </g>
        </g>
    </g>
</svg>