<?xml version="1.0" encoding="UTF-8"?>
<svg width="27px" height="24px" viewBox="0 0 27 24" version="1.1" xmlns="http://www.w3.org/2000/svg" xmlns:xlink="http://www.w3.org/1999/xlink">
    <!-- Generator: Sketch 64 (93537) - https://sketch.com -->
    <title>map-marked</title>
    <desc>Created with Sketch.</desc>
    <g id="Page-1" stroke="none" stroke-width="1" fill="none" fill-rule="evenodd">
        <g id="MeChange_Mobile_Home" transform="translate(-278.000000, -819.000000)" fill="#ffffff" fill-rule="nonzero">
            <g id="Bottom-Bar" transform="translate(0.000000, 806.000000)">
                <g id="map-marked" transform="translate(278.000000, 13.000000)">
                    <path d="M26.25,7.5 C26.15625,7.5 26.0625,7.51875 25.96875,7.55625 L18,10.5 L17.5171875,10.33125 C18.609375,8.6953125 19.5,6.99375 19.5,5.765625 C19.5,2.578125 16.8140625,0 13.5,0 C10.1859375,0 7.5,2.5828125 7.5,5.765625 C7.5,6.31875 7.6875,6.975 7.9875,7.66875 L0.9421875,10.125 C0.375,10.35 0,10.903125 0,11.5171875 L0,23.25 C0,23.68125 0.3515625,24 0.75,24 C0.84375,24 0.9375,23.98125 1.03125,23.94375 L9,21 L17.0625,23.8453125 C17.671875,24.046875 18.328125,24.0515625 18.9375,23.8546875 L26.0578125,21.375 C26.6296875,21.1453125 27,20.596875 27,19.9828125 L27,8.25 C27,7.81875 26.6484375,7.5 26.25,7.5 Z M8.25,19.678125 L1.4953125,22.171875 L1.434375,11.5359375 L8.25,9.16875 L8.25,19.678125 Z M13.5,1.5 C15.9796875,1.5 18,3.4125 18,5.765625 C18,7.03125 16.2140625,9.9328125 13.5,13.115625 C10.7859375,9.9328125 9,7.03125 9,5.765625 C9,3.4125 11.0203125,1.5 13.5,1.5 Z M9.75,19.6734375 L9.75,10.725 C10.89375,12.3796875 12.1921875,13.9125 12.9234375,14.7421875 C13.0734375,14.915625 13.2890625,15 13.5,15 C13.7109375,15 13.921875,14.915625 14.0765625,14.7421875 C14.6765625,14.0625 15.65625,12.909375 16.621875,11.60625 L17.25,11.8265625 L17.25,22.321875 L9.75,19.6734375 Z M18.75,22.33125 L18.75,11.821875 L25.5046875,9.328125 L25.565625,19.9640625 L18.75,22.33125 Z" id="Shape"></path>
                </g>
            </g>
        </g>
    </g>
</svg>