<?xml version="1.0" encoding="UTF-8"?>
<svg width="27px" height="24px" viewBox="0 0 27 24" version="1.1" xmlns="http://www.w3.org/2000/svg" xmlns:xlink="http://www.w3.org/1999/xlink">
    <!-- Generator: Sketch 64 (93537) - https://sketch.com -->
    <title>map-marked</title>
    <desc>Created with Sketch.</desc>
    <g id="Page-1" stroke="none" stroke-width="1" fill="none" fill-rule="evenodd">
        <g id="Explore" transform="translate(-278.000000, -819.000000)" fill="#05696B" fill-rule="nonzero">
            <g id="Bottom-Bar" transform="translate(0.000000, 806.000000)">
                <g id="map-marked" transform="translate(278.000000, 13.000000)">
                    <path d="M13.5,0 C10.2379688,0 7.59375,2.64421875 7.59375,5.90625 C7.59375,8.5434375 11.4539063,13.35 12.9328125,15.0946875 C13.2323437,15.448125 13.768125,15.448125 14.0671875,15.0946875 C15.5460937,13.35 19.40625,8.5434375 19.40625,5.90625 C19.40625,2.64421875 16.7620312,0 13.5,0 Z M0.943125,10.1226563 C0.373625521,10.3504398 0.000136395508,10.9019488 0,11.5153125 L0,23.2490625 C0,23.7796875 0.53578125,24.1425 1.0284375,23.945625 L7.5,21 L7.5,10.074375 C7.085625,9.3253125 6.74671875,8.5959375 6.50390625,7.8984375 L0.943125,10.1226563 Z M13.5,16.8595312 C12.8404688,16.8595312 12.2165625,16.5698438 11.7885938,16.0645313 C10.8670313,14.9770313 9.886875,13.7385938 9,12.4682813 L9,20.9995313 L18,23.9995313 L18,12.46875 C17.113125,13.7385937 16.1334375,14.9775 15.2114063,16.065 C14.7834375,16.5698438 14.1595313,16.8595312 13.5,16.8595312 Z M25.9715625,7.554375 L19.5,10.5 L19.5,24 L26.056875,21.3773438 C26.6264596,21.1496659 27,20.598091 27,19.9846875 L27,8.2509375 C27,7.7203125 26.4642188,7.3575 25.9715625,7.554375 L25.9715625,7.554375 Z" id="Shape"></path>
                </g>
            </g>
        </g>
    </g>
</svg>