<?xml version="1.0" encoding="UTF-8"?>
<svg width="24px" height="24px" viewBox="0 0 24 24" version="1.1" xmlns="http://www.w3.org/2000/svg" xmlns:xlink="http://www.w3.org/1999/xlink">
    <!-- Generator: Sketch 64 (93537) - https://sketch.com -->
    <title>rss</title>
    <desc>Created with Sketch.</desc>
    <g id="Page-1" stroke="none" stroke-width="1" fill="none" fill-rule="evenodd">
        <g id="MeChange_Mobile_Home" transform="translate(-197.000000, -819.000000)" fill="#ffffff" fill-rule="nonzero">
            <g id="Bottom-Bar" transform="translate(0.000000, 806.000000)">
                <g id="rss" transform="translate(197.000000, 13.000000)">
                    <path d="M4.28570939,17.1428504 C5.70358277,17.1428504 6.85713502,18.2964051 6.85713502,19.7142815 C6.85713502,21.1321579 5.70358277,22.2857126 4.28570939,22.2857126 C2.86783601,22.2857126 1.71428376,21.1321579 1.71428376,19.7142815 C1.71428376,18.2964051 2.86783601,17.1428504 4.28570939,17.1428504 L4.28570939,17.1428504 Z M4.28570939,15.428563 C1.91876566,15.428563 0,17.3473327 0,19.7142815 C0,22.0812303 1.91876566,24 4.28570939,24 C6.65265311,24 8.57141878,22.0812303 8.57141878,19.7142815 C8.57141878,17.3473327 6.65265311,15.428563 4.28570939,15.428563 Z M23.9997583,23.3365172 C23.6543301,10.5946475 13.3894133,0.345566041 0.663534956,0.000244272608 C0.3004818,-0.00961287994 0,0.28010169 0,0.64320919 L0,1.07210247 C0,1.41935281 0.275678256,1.70510309 0.622820717,1.71463881 C12.4519143,2.03874628 21.9613142,11.5671306 22.2853138,23.377178 C22.2948495,23.7243212 22.5805992,24 22.9278488,24 L23.3567947,24 C23.7199015,24 24.0095619,23.6995176 23.9997583,23.3365172 Z M16.2723564,23.3338386 C15.9323389,14.8624732 9.13627528,8.06757363 0.666159953,7.72760901 C0.302303226,7.71298399 0,8.00623428 0,8.37035964 L0,8.79919935 C0,9.14521755 0.273963973,9.42705711 0.619660006,9.44146784 C8.18040137,9.75705743 14.2429123,15.8207062 14.5585012,23.3803387 C14.5729119,23.7260354 14.8548045,24 15.2007683,24 L15.6296071,24 C15.9937853,24 16.2869814,23.6976961 16.2723564,23.3338386 Z" id="Shape"></path>
                </g>
            </g>
        </g>
    </g>
</svg>