<?xml version="1.0" encoding="UTF-8"?>
<svg width="24px" height="24px" viewBox="0 0 24 24" version="1.1" xmlns="http://www.w3.org/2000/svg" xmlns:xlink="http://www.w3.org/1999/xlink">
    <!-- Generator: Sketch 64 (93537) - https://sketch.com -->
    <title>rss</title>
    <desc>Created with Sketch.</desc>
    <g id="Page-1" stroke="none" stroke-width="1" fill="none" fill-rule="evenodd">
        <g id="MeChange_Mobile_News" transform="translate(-197.000000, -819.000000)" fill="#05696B" fill-rule="nonzero">
            <g id="Bottom-Bar" transform="translate(0.000000, 806.000000)">
                <g id="rss" transform="translate(197.000000, 13.000000)">
                    <path d="M6.86147616,20.5691892 C6.86147616,22.4639512 5.3254775,23.9999464 3.43071129,23.9999464 C1.53594509,23.9999464 0,22.4639512 0,20.5691892 C0,18.6744272 1.53599866,17.138432 3.43076486,17.138432 C5.32553107,17.138432 6.86147616,18.6744808 6.86147616,20.5691892 L6.86147616,20.5691892 Z M16.2718251,23.1004314 C15.8242898,14.8183142 9.19049198,8.17617413 0.899517072,7.72815766 C0.410142499,7.70169346 0,8.09490652 0,8.58497643 L0,11.1600934 C0,11.6108956 0.347678268,11.988948 0.797517161,12.0181979 C6.78851193,12.408411 11.5907042,17.1986461 11.9817217,23.2023775 C12.0110252,23.6522154 12.3890785,23.9998929 12.8398281,23.9998929 L15.4149508,23.9998929 C15.9050754,23.9998929 16.2982894,23.5898048 16.2718251,23.1004314 Z M23.9994433,23.1158599 C23.5497652,10.5898273 13.4713275,0.452430249 0.884088514,0.000556651509 C0.400338936,-0.0168004375 0,0.374001921 0,0.858018275 L0,3.43308171 C0,3.89513385 0.366160395,4.27120411 0.827838563,4.29016833 C11.0695618,4.71011346 19.2899832,12.9320701 19.7098757,23.1721633 C19.7287864,23.6338404 20.1048575,24 20.5669642,24 L23.1420334,24 C23.6259972,24 24.0168005,23.5996084 23.9994433,23.1158599 L23.9994433,23.1158599 Z" id="Shape"></path>
                </g>
            </g>
        </g>
    </g>
</svg>