<?xml version="1.0" encoding="UTF-8"?>
<svg width="24px" height="24px" viewBox="0 0 24 24" version="1.1" xmlns="http://www.w3.org/2000/svg" xmlns:xlink="http://www.w3.org/1999/xlink">
    <!-- Generator: Sketch 64 (93537) - https://sketch.com -->
    <title>usd-circle</title>
    <desc>Created with Sketch.</desc>
    <g id="Page-1" stroke="none" stroke-width="1" fill="none" fill-rule="evenodd">
        <g id="MeChange_Mobile_Trends" transform="translate(-32.000000, -819.000000)" fill="#ffffff" fill-rule="nonzero">
            <g id="Bottom-Bar" transform="translate(0.000000, 806.000000)">
                <g id="usd-circle" transform="translate(32.000000, 13.000000)">
                    <path d="M12,0 C5.37096774,0 0,5.37096774 0,12 C0,18.6290323 5.37096774,24 12,24 C18.6290323,24 24,18.6290323 24,12 C24,5.37096774 18.6290323,0 12,0 Z M12,22.4516129 C6.23709677,22.4516129 1.5483871,17.7629032 1.5483871,12 C1.5483871,6.23709677 6.23709677,1.5483871 12,1.5483871 C17.7629032,1.5483871 22.4516129,6.23709677 22.4516129,12 C22.4516129,17.7629032 17.7629032,22.4516129 12,22.4516129 Z M13.95,11.7435484 L10.466129,10.766129 C9.88064516,10.6016129 9.46935484,10.0693548 9.46935484,9.47419355 C9.46935484,8.73387097 10.0887097,8.12903226 10.8483871,8.12903226 L13.0258065,8.12903226 C13.5677419,8.12903226 14.0854839,8.30322581 14.5064516,8.61774194 C14.6612903,8.73387097 14.8741935,8.71451613 15.0096774,8.57903226 L15.5564516,8.02258065 C15.7209677,7.85806452 15.7016129,7.58709677 15.5177419,7.44193548 C14.8112903,6.88064516 13.9403226,6.57580645 13.0209677,6.57580645 L12.7741935,6.57580645 L12.7741935,4.64032258 C12.7741935,4.42741935 12.6,4.25322581 12.3870968,4.25322581 L11.6129032,4.25322581 C11.4,4.25322581 11.2258065,4.42741935 11.2258065,4.64032258 L11.2258065,6.57580645 L10.8483871,6.57580645 C9.23709677,6.57580645 7.92096774,7.87258065 7.92096774,9.46935484 C7.92096774,10.7564516 8.79677419,11.8983871 10.0451613,12.2516129 L13.5290323,13.2290323 C14.1145161,13.3935484 14.5258065,13.9258065 14.5258065,14.5209677 C14.5258065,15.2612903 13.9064516,15.866129 13.1467742,15.866129 L10.9693548,15.866129 C10.4274194,15.866129 9.90967742,15.6919355 9.48870968,15.3774194 C9.33387097,15.2612903 9.12096774,15.2806452 8.98548387,15.416129 L8.43870968,15.9725806 C8.27419355,16.1370968 8.29354839,16.4080645 8.47741935,16.5532258 C9.18387097,17.1145161 10.0548387,17.4193548 10.9741935,17.4193548 L11.2258065,17.4193548 L11.2258065,19.3548387 C11.2258065,19.5677419 11.4,19.7419355 11.6129032,19.7419355 L12.3870968,19.7419355 C12.6,19.7419355 12.7741935,19.5677419 12.7741935,19.3548387 L12.7741935,17.4193548 L13.1516129,17.4193548 C14.7629032,17.4193548 16.0790323,16.1225806 16.0790323,14.5258065 C16.0741935,13.2387097 15.2032258,12.0967742 13.95,11.7435484 Z" id="Shape"></path>
                </g>
            </g>
        </g>
    </g>
</svg>