<?xml version="1.0" encoding="UTF-8"?>
<svg width="24px" height="24px" viewBox="0 0 24 24" version="1.1" xmlns="http://www.w3.org/2000/svg" xmlns:xlink="http://www.w3.org/1999/xlink">
    <!-- Generator: Sketch 64 (93537) - https://sketch.com -->
    <title>usd-circle</title>
    <desc>Created with Sketch.</desc>
    <g id="Page-1" stroke="none" stroke-width="1" fill="none" fill-rule="evenodd">
        <g id="MeChange_Mobile_Home" transform="translate(-32.000000, -819.000000)" fill="#05696B" fill-rule="nonzero">
            <g id="Bottom-Bar" transform="translate(0.000000, 806.000000)">
                <g id="usd-circle" transform="translate(32.000000, 13.000000)">
                    <path d="M12,0 C5.37096774,0 0,5.37096774 0,12 C0,18.6290323 5.37096774,24 12,24 C18.6290323,24 24,18.6290323 24,12 C24,5.37096774 18.6290323,0 12,0 Z M13.1612903,18.1935484 L13.1612903,18.9677419 C13.1612903,19.3935484 12.8129032,19.7419355 12.3870968,19.7419355 L11.6129032,19.7419355 C11.1870968,19.7419355 10.8387097,19.3935484 10.8387097,18.9677419 L10.8387097,18.183871 C10.0403226,18.1548387 9.26129032,17.9032258 8.59354839,17.4532258 C8.17258065,17.1677419 8.10967742,16.5774194 8.48225806,16.233871 L9.06290323,15.6870968 C9.32419355,15.4403226 9.70645161,15.4258065 10.016129,15.6096774 C10.3112903,15.783871 10.6403226,15.8709677 10.9790323,15.8709677 L13.1564516,15.8709677 C13.7032258,15.8709677 14.1483871,15.3629032 14.1483871,14.7387097 C14.1483871,14.2258065 13.8435484,13.7758065 13.4129032,13.6403226 L9.91935484,12.5806452 C8.51612903,12.1548387 7.53870968,10.7903226 7.53870968,9.26129032 C7.53870968,7.35967742 9.01935484,5.81129032 10.8387097,5.80645161 L10.8387097,5.03225806 C10.8387097,4.60645161 11.1870968,4.25806452 11.6129032,4.25806452 L12.3870968,4.25806452 C12.8129032,4.25806452 13.1612903,4.60645161 13.1612903,5.03225806 L13.1612903,5.81612903 C13.9596774,5.84516129 14.7387097,6.09677419 15.4064516,6.54677419 C15.8274194,6.83225806 15.8903226,7.42258065 15.5177419,7.76612903 L14.9370968,8.31290323 C14.6758065,8.55967742 14.2935484,8.57419355 13.983871,8.39032258 C13.6887097,8.21612903 13.3596774,8.12903226 13.0209677,8.12903226 L10.8435484,8.12903226 C10.2967742,8.12903226 9.8516129,8.63709677 9.8516129,9.26129032 C9.8516129,9.77419355 10.1564516,10.2241935 10.5870968,10.3596774 L14.0709677,11.4193548 C15.4741935,11.8451613 16.4516601,13.2096774 16.4516601,14.7387097 C16.4612903,16.6403226 14.9806452,18.183871 13.1612903,18.1935484 Z" id="Shape"></path>
                </g>
            </g>
        </g>
    </g>
</svg>